<?xml version="1.0" encoding="utf-8"?>
<!-- Generator: Adobe Illustrator 16.0.0, SVG Export Plug-In . SVG Version: 6.00 Build 0)  -->
<!DOCTYPE svg PUBLIC "-//W3C//DTD SVG 1.1//EN" "http://www.w3.org/Graphics/SVG/1.1/DTD/svg11.dtd">
<svg version="1.1" id="Layer_1" xmlns="http://www.w3.org/2000/svg" xmlns:xlink="http://www.w3.org/1999/xlink" x="0px" y="0px"
	 width="471.792px" height="291px" viewBox="0 0 471.792 291" style="enable-background:new 0 0 471.792 291;" xml:space="preserve"
	>
<line style="fill:none;" x1="-122.163" y1="-8028.72" x2="-122.163" y2="8354.279"/>
<path style="fill:#FFFFFF;" d="M76.837,274c52.973-1.682,68-136,110-136c49.655,0,42.49,153,76,153
	c21,0,57.668-257.356,129.668-257.356s50.033,76.524,70.033,75.524c19.975-0.999,12.131-108.221-68.869-107.221
	S287.603,143.391,256.603,143.391C222.244,143.391,201.837,0,175.851,0c-20.014,0-50.014,248-100.014,252s-56-91-68-91
	C-15.163,161,13.837,276,76.837,274z"/>
<path style="fill:none;" d="M669.837,145.5"/>
</svg>
